# xmcd
#
# Track frame offsets:
#	182
#	16635
#	32422
#	49002
#	67057
#	81435
#	99350
#	117880
#	131697
#
# Disc length: 1971
#
# Revision: 1
# Processed by: cddbd v1.5.1PL0 Copyright (c) Steve Scherf et al.
# Submitted via: CDex 1.50
# Normalized: r0:DSETVAR1,TDELIM( - )
#
DISCID=6b07b109
DTITLE=Various Artist - Top new country stars of 98
DYEAR=1900
DGENRE=Country
TTITLE0=lost in the shuffle - michael peterson
TTITLE1=lucky in love - sherrie austin
TTITLE2=i'm your man - jason sellers
TTITLE3=down came a blackbird - lila mccann
TTITLE4=night like these - the lynns
TTITLE5=a woman like you - matt king
TTITLE6=three chords and the truth - sara evans
TTITLE7=in a heartbeat - rodney atkins
TTITLE8=please - the kinleys
EXTD=
EXTT0=
EXTT1=
EXTT2=
EXTT3=
EXTT4=
EXTT5=
EXTT6=
EXTT7=
EXTT8=
PLAYORDER=
